fd_4_states
version=1
nRows=31
nColumns=17
inDegrees=yes

# SIMM Motion File Header:
name fd_4_states
datacolumns 17
datarows 31
otherdata 1
range 0.478969 0.484941
endheader
time	/jointset/r_shoulder/r_shoulder_elev/value	/jointset/r_shoulder/r_shoulder_elev/speed	/jointset/r_elbow/r_elbow_flex/value	/jointset/r_elbow/r_elbow_flex/speed	/forceset/TRIlong/activation	/forceset/TRIlong/fiber_length	/forceset/TRIlat/activation	/forceset/TRIlat/fiber_length	/forceset/TRImed/activation	/forceset/TRImed/fiber_length	/forceset/BIClong/activation	/forceset/BIClong/fiber_length	/forceset/BICshort/activation	/forceset/BICshort/fiber_length	/forceset/BRA/activation	/forceset/BRA/fiber_length
      0.478969	      4.875035	    145.603552	    115.666130	    298.694546	      0.024960	      0.181154	      0.418848	      0.111071	      0.410259	      0.106188	      0.928601	      0.072542	      0.747749	      0.072942	      0.718099	      0.057267
      0.479201	      4.908760	    145.498575	    115.735574	    300.738089	      0.024944	      0.181157	      0.416254	      0.111101	      0.407750	      0.106218	      0.929470	      0.072474	      0.751322	      0.072875	      0.722202	      0.057236
      0.479455	      4.945723	    145.362766	    115.812304	    303.071326	      0.024928	      0.181182	      0.413438	      0.111135	      0.405026	      0.106250	      0.930409	      0.072398	      0.755170	      0.072802	      0.726617	      0.057201
      0.479688	      4.979608	    145.226606	    115.883243	    305.304933	      0.024912	      0.181296	      0.410882	      0.111165	      0.402552	      0.106280	      0.931260	      0.072329	      0.758636	      0.072735	      0.730590	      0.057170
      0.479922	      5.013462	    145.103038	    115.954717	    307.657982	      0.024897	      0.181297	      0.408350	      0.111196	      0.400102	      0.106310	      0.932100	      0.072259	      0.762043	      0.072668	      0.734491	      0.057138
      0.479980	      5.021871	    145.069216	    115.972565	    308.253977	      0.024893	      0.181300	      0.407725	      0.111204	      0.399497	      0.106317	      0.932307	      0.072242	      0.762881	      0.072651	      0.735450	      0.057130
      0.480004	      5.025362	    145.054851	    115.979985	    308.502742	      0.024891	      0.181301	      0.407475	      0.111207	      0.399255	      0.106320	      0.932392	      0.072235	      0.763137	      0.072644	      0.735753	      0.057127
      0.480019	      5.027562	    145.045727	    115.984667	    308.659606	      0.024890	      0.181302	      0.407383	      0.111209	      0.399166	      0.106322	      0.932446	      0.072230	      0.762730	      0.072640	      0.735373	      0.057125
      0.480034	      5.029763	    145.036570	    115.989351	    308.816214	      0.024889	      0.181303	      0.407299	      0.111211	      0.399085	      0.106324	      0.932500	      0.072226	      0.762267	      0.072635	      0.734938	      0.057123
      0.480110	      5.040763	    144.990440	    116.012807	    309.595611	      0.024884	      0.181312	      0.406879	      0.111221	      0.398677	      0.106334	      0.932769	      0.072203	      0.759960	      0.072614	      0.732771	      0.057113
      0.480320	      5.071232	    144.863973	    116.078120	    311.727513	      0.024871	      0.181351	      0.405719	      0.111248	      0.397555	      0.106360	      0.933509	      0.072140	      0.753627	      0.072554	      0.726822	      0.057085
      0.480530	      5.101675	    144.740307	    116.143876	    313.814004	      0.024857	      0.181390	      0.404568	      0.111275	      0.396440	      0.106387	      0.934241	      0.072077	      0.747385	      0.072496	      0.720955	      0.057057
      0.480808	      5.141801	    144.580481	    116.231296	    316.486421	      0.024839	      0.181497	      0.403062	      0.111310	      0.394982	      0.106421	      0.935193	      0.071994	      0.739285	      0.072422	      0.713337	      0.057022
      0.481085	      5.181887	    144.443408	    116.319448	    319.083365	      0.024821	      0.181506	      0.401570	      0.111345	      0.393538	      0.106455	      0.936130	      0.071911	      0.731334	      0.072348	      0.705856	      0.056987
      0.481320	      5.215844	    144.326704	    116.394742	    321.194106	      0.024806	      0.181549	      0.400317	      0.111374	      0.392324	      0.106484	      0.936914	      0.071839	      0.724706	      0.072287	      0.699618	      0.056958
      0.481555	      5.249775	    144.218369	    116.470523	    323.228521	      0.024791	      0.181602	      0.399074	      0.111404	      0.391120	      0.106513	      0.937688	      0.071768	      0.718181	      0.072228	      0.693473	      0.056930
      0.481791	      5.283681	    144.115713	    116.546774	    325.179250	      0.024775	      0.181635	      0.397840	      0.111433	      0.389926	      0.106541	      0.938451	      0.071697	      0.711756	      0.072169	      0.687419	      0.056901
      0.482025	      5.317416	    144.016939	    116.623137	    327.032461	      0.024760	      0.181747	      0.396623	      0.111462	      0.388746	      0.106570	      0.939202	      0.071626	      0.705455	      0.072111	      0.681481	      0.056873
      0.482259	      5.351131	    143.943692	    116.699928	    328.824875	      0.024746	      0.181749	      0.395415	      0.111491	      0.387576	      0.106599	      0.939943	      0.071554	      0.699250	      0.072053	      0.675629	      0.056845
      0.482501	      5.385935	    143.863294	    116.779668	    330.567135	      0.024730	      0.181774	      0.394177	      0.111521	      0.386377	      0.106628	      0.940699	      0.071480	      0.692938	      0.071995	      0.669675	      0.056816
      0.482721	      5.417552	    143.792657	    116.852503	    332.062419	      0.024716	      0.181901	      0.393061	      0.111549	      0.385296	      0.106655	      0.941377	      0.071412	      0.687284	      0.071942	      0.664339	      0.056789
      0.482940	      5.449157	    143.751775	    116.925660	    333.510271	      0.024702	      0.181899	      0.391954	      0.111576	      0.384223	      0.106682	      0.942047	      0.071345	      0.681709	      0.071890	      0.659076	      0.056763
      0.483199	      5.486324	    143.695174	    117.012112	    335.088255	      0.024686	      0.181917	      0.390661	      0.111609	      0.382970	      0.106714	      0.942825	      0.071265	      0.675248	      0.071829	      0.652974	      0.056732
      0.483418	      5.517845	    143.651533	    117.085767	    336.336373	      0.024672	      0.181965	      0.389574	      0.111637	      0.381916	      0.106742	      0.943476	      0.071197	      0.669848	      0.071777	      0.647871	      0.056705
      0.483638	      5.549357	    143.615797	    117.159687	    337.506335	      0.024658	      0.182013	      0.388494	      0.111664	      0.380870	      0.106769	      0.944120	      0.071128	      0.664520	      0.071726	      0.642836	      0.056679
      0.483857	      5.580862	    143.585603	    117.233855	    338.595047	      0.024645	      0.182049	      0.387423	      0.111692	      0.379831	      0.106796	      0.944756	      0.071060	      0.659264	      0.071675	      0.637867	      0.056653
      0.484077	      5.612362	    143.561655	    117.308254	    339.603687	      0.024631	      0.182096	      0.386359	      0.111720	      0.378800	      0.106824	      0.945384	      0.070992	      0.654079	      0.071625	      0.632962	      0.056626
      0.484296	      5.643856	    143.545918	    117.382864	    340.535202	      0.024617	      0.182148	      0.385304	      0.111748	      0.377776	      0.106851	      0.946005	      0.070923	      0.648962	      0.071574	      0.628120	      0.056599
      0.484515	      5.675348	    143.534461	    117.457671	    341.384554	      0.024604	      0.182178	      0.384256	      0.111776	      0.376760	      0.106879	      0.946619	      0.070854	      0.643912	      0.071524	      0.623341	      0.056573
      0.484728	      5.705927	    143.524978	    117.530483	    342.127740	      0.024591	      0.182289	      0.383245	      0.111803	      0.375780	      0.106906	      0.947208	      0.070787	      0.639072	      0.071475	      0.618758	      0.056547
      0.484941	      5.736506	    143.538706	    117.603448	    342.820345	      0.024578	      0.182290	      0.382242	      0.111830	      0.374807	      0.106933	      0.947790	      0.070720	      0.634293	      0.071427	      0.614231	      0.056521
